<svg xmlns="http://www.w3.org/2000/svg"
 viewBox="505 301 542 417"
 width="542" height="417">

<g transform="translate(0,1024) scale(0.1,-0.1)"
fill="#155DFC" stroke="none">
<path d="M10385 7185 c-36 -17 -625 -273 -742 -322 -46 -19 -83 -39 -83 -45 0
-5 67 -41 150 -81 100 -48 148 -76 145 -85 -5 -14 -929 -1248 -1022 -1364 -30
-38 -59 -68 -65 -68 -6 0 -138 71 -292 157 -155 86 -303 170 -331 185 -86 48
-130 34 -179 -56 -42 -76 -115 -214 -174 -326 -24 -47 -46 -89 -49 -94 -6 -9
-153 490 -288 969 -53 191 -68 234 -90 253 -48 41 -101 26 -128 -35 -20 -45
-161 -454 -297 -858 -54 -159 -101 -290 -106 -292 -5 -2 -26 37 -46 85 -129
303 -201 459 -219 475 -31 25 -76 22 -102 -7 -12 -14 -46 -82 -76 -153 -30
-70 -78 -182 -108 -248 l-52 -120 -421 -3 -420 -2 0 665 0 665 1975 0 c2161 0
2014 -4 2068 59 66 79 10 197 -108 230 -30 9 -562 11 -2050 9 -1830 -3 -2013
-4 -2046 -19 -51 -23 -107 -75 -132 -123 l-22 -41 0 -1355 0 -1355 27 -47 c36
-60 87 -102 151 -122 47 -15 258 -16 2367 -14 l2315 3 57 28 c71 35 110 81
132 155 15 52 17 151 14 1176 l-3 1118 -165 -220 c-91 -121 -168 -231 -171
-244 -4 -12 -7 -321 -8 -685 l-1 -663 -2200 0 -2200 0 0 275 0 275 483 0 c448
0 485 1 500 18 13 14 83 172 127 287 l12 30 25 -55 c14 -30 40 -91 58 -135
109 -266 187 -432 210 -452 18 -16 39 -23 69 -23 55 0 86 32 113 120 11 36 55
171 96 300 58 180 198 625 222 705 1 6 5 -1 8 -15 3 -14 22 -97 42 -185 107
-467 215 -909 229 -930 22 -33 96 -59 142 -50 50 9 89 51 146 160 164 311 299
550 312 553 8 2 113 -49 233 -114 424 -227 417 -224 459 -223 21 0 46 3 55 7
26 11 87 90 573 736 253 335 497 659 544 720 l84 111 96 -96 c99 -101 160
-154 168 -147 3 4 43 861 44 941 0 20 -14 21 -55 2z m-2600 -3110 c36 -35 34
-88 -4 -126 l-29 -29 -151 0 c-141 0 -151 1 -176 23 -15 13 -28 37 -31 58 -5
28 -1 41 21 67 l27 32 159 0 c156 0 160 -1 184 -25z"/>
<path d="M7098 3600 c-9 -6 -56 -59 -104 -118 -48 -59 -91 -111 -96 -117 -5
-6 -112 -12 -261 -15 -230 -5 -255 -7 -291 -26 -66 -34 -97 -82 -105 -159 -4
-36 -5 -68 -2 -70 2 -3 616 -5 1363 -5 l1358 0 0 55 c0 84 -40 151 -110 183
-28 13 -85 17 -295 22 l-259 5 -104 128 -103 127 -487 0 c-299 0 -493 -4 -504
-10z"/>
</g>
</svg>
